<svg width="64" height="64" viewBox="0 0 64 64" fill="none" xmlns="http://www.w3.org/2000/svg">
    <rect width="64" height="64" rx="10.6667" fill="#111111"/>
    <path d="M47.2287 15.0379C42.8638 12.3207 37.1175 12.9623 31.9926 16.1788C26.8836 12.964 21.1338 12.3207 16.7743 15.0379C9.87806 19.3402 9.03963 30.4221 14.9034 39.7874C19.2255 46.6949 25.9846 50.7395 32.0015 50.6649C38.0183 50.7395 44.7774 46.6949 49.0996 39.7874C54.9562 30.4221 54.1249 19.3402 47.2287 15.0379ZM18.0738 37.8112C16.8643 35.8973 15.9521 33.8117 15.368 31.6252C14.8486 29.7278 14.6501 27.7572 14.7805 25.7946C15.0422 22.3346 16.4538 19.6388 18.7538 18.2029C21.0537 16.767 24.0941 16.6835 27.3322 17.9648C27.8244 18.1624 28.3062 18.3848 28.7759 18.6312C26.9761 20.268 25.4114 22.1452 24.1262 24.2094C20.5659 29.8961 19.4801 36.2261 20.7226 41.2694C19.7328 40.2024 18.8459 39.0445 18.0738 37.8112ZM48.6367 31.6252C48.0518 33.8114 47.1396 35.8969 45.9309 37.8112C45.1591 39.0469 44.2723 40.2072 43.2821 41.2766C44.3929 36.7539 43.6381 31.2147 40.9145 26.0185C40.8714 25.9326 40.8106 25.8567 40.7362 25.7958C40.6617 25.7349 40.5752 25.6903 40.4823 25.665C40.3895 25.6397 40.2923 25.6342 40.1971 25.6488C40.102 25.6635 40.011 25.698 39.9301 25.7502L31.4389 31.0477C31.3616 31.0957 31.2944 31.1586 31.2414 31.2326C31.1884 31.3066 31.1506 31.3904 31.1301 31.4791C31.1096 31.5677 31.1068 31.6595 31.1219 31.7493C31.137 31.839 31.1698 31.9249 31.2182 32.002L32.4643 33.9905C32.5124 34.0678 32.5754 34.1348 32.6496 34.1877C32.7237 34.2406 32.8076 34.2784 32.8964 34.2988C32.9852 34.3193 33.0772 34.3221 33.1671 34.307C33.257 34.2919 33.343 34.2592 33.4202 34.2109L38.9244 30.7793C39.1024 31.3124 39.2804 31.8367 39.4139 32.3787C39.9331 34.2761 40.1316 36.2467 40.0013 38.2093C39.7397 41.6711 38.328 44.3669 36.0281 45.8028C34.8418 46.5269 33.4825 46.9196 32.0922 46.9401H31.9142C30.5239 46.9201 29.1645 46.5273 27.9784 45.8028C25.6767 44.3669 24.265 41.6711 24.0034 38.2093C23.874 36.2467 24.0725 34.2763 24.5908 32.3787C25.7844 27.9894 28.2505 24.05 31.6793 21.0551C33.1581 19.7587 34.8425 18.7168 36.6636 17.9719C39.8928 16.6906 42.9386 16.7741 45.2403 18.21C47.542 19.6459 48.9518 22.3417 49.2135 25.8017C49.3458 27.7614 49.1509 29.7294 48.6367 31.6252Z" fill="#1BDBDB"/>
</svg>
